<?xml version="1.0" standalone="no"?>
<!DOCTYPE svg PUBLIC "-//W3C//DTD SVG 20010904//EN"
 "http://www.w3.org/TR/2001/REC-SVG-20010904/DTD/svg10.dtd">
<svg version="1.0" xmlns="http://www.w3.org/2000/svg"
 width="700.000000pt" height="700.000000pt" viewBox="0 0 700.000000 700.000000"
 preserveAspectRatio="xMidYMid meet">
<metadata>
Created by potrace 1.11, written by Peter Selinger 2001-2013
</metadata>
<g transform="translate(0.000000,700.000000) scale(0.100000,-0.100000)"
fill="#000000" stroke="none">
<path d="M6747 6804 c-1 -1 -60 -5 -132 -8 -71 -4 -143 -9 -160 -11 -16 -3
-66 -7 -110 -10 -44 -3 -90 -7 -103 -10 -13 -2 -51 -7 -85 -11 -34 -4 -69 -8
-77 -9 -8 -1 -42 -5 -75 -10 -65 -8 -77 -10 -115 -19 -14 -3 -41 -8 -61 -10
-96 -14 -486 -99 -594 -130 -27 -8 -97 -28 -155 -44 -58 -17 -132 -40 -165
-51 -33 -12 -67 -23 -75 -26 -35 -9 -200 -67 -255 -89 -33 -14 -107 -43 -165
-67 -58 -23 -143 -59 -188 -80 -46 -22 -86 -39 -89 -39 -6 0 -347 -172 -399
-201 -22 -12 -76 -43 -122 -70 -45 -27 -85 -49 -88 -49 -3 0 -35 -20 -72 -43
-37 -24 -105 -68 -152 -98 -72 -45 -212 -140 -245 -166 -5 -5 -41 -31 -80 -58
-159 -112 -370 -285 -575 -470 -99 -90 -383 -378 -469 -475 -46 -52 -100 -113
-120 -135 -170 -184 -552 -722 -693 -975 -14 -25 -40 -70 -58 -100 -40 -68
-229 -438 -257 -505 -12 -27 -40 -93 -63 -145 -58 -133 -55 -125 -96 -230
-126 -327 -290 -891 -329 -1140 -4 -25 -9 -54 -11 -65 -2 -11 -6 -33 -9 -50
-3 -16 -7 -41 -10 -55 -3 -14 -7 -41 -10 -60 -3 -19 -7 -46 -10 -60 -2 -14 -7
-45 -10 -70 -4 -25 -8 -56 -10 -70 -2 -14 -7 -50 -10 -80 -3 -30 -8 -66 -10
-80 -2 -14 -7 -69 -10 -122 -4 -53 -8 -109 -10 -125 -2 -15 -7 -113 -10 -218
-4 -104 -8 -199 -10 -211 -4 -28 5 -38 35 -42 14 -1 1030 -4 2258 -6 l2232 -4
1 72 c0 39 2 85 4 101 2 17 6 57 10 90 35 359 181 741 404 1060 156 224 422
474 661 624 93 58 308 163 423 205 91 34 284 88 352 99 17 3 46 8 65 11 79 14
99 16 195 22 55 4 114 8 130 8 l30 1 0 2190 c0 1205 -1 2220 -3 2256 l-4 67
-120 -2 c-66 0 -120 -2 -121 -2z"/>
</g>
</svg>
